<svg width="46" height="118" viewBox="0 0 46 118" fill="none" xmlns="http://www.w3.org/2000/svg">
<path d="M26 3.06348C26 1.40662 24.6569 0.0634765 23 0.0634766C21.3431 0.0634766 20 1.40662 20 3.06348L26 3.06348ZM20.8787 116.948C22.0503 118.12 23.9498 118.12 25.1213 116.948L44.2132 97.8566C45.3848 96.685 45.3848 94.7855 44.2132 93.6139C43.0416 92.4424 41.1421 92.4424 39.9706 93.6139L23 110.585L6.02944 93.6139C4.85787 92.4424 2.95837 92.4424 1.7868 93.6139C0.615228 94.7855 0.615228 96.685 1.7868 97.8566L20.8787 116.948ZM20 3.06348L20 114.827L26 114.827L26 3.06348L20 3.06348Z" fill="#FCB834"/>
</svg>
