<svg width="135" height="113" viewBox="0 0 135 113" fill="none" xmlns="http://www.w3.org/2000/svg">
<path d="M17.7172 14.3135V19.9597L25.3415 15.5174C25.7147 15.2675 26.0246 14.9329 26.2463 14.5405C26.4681 14.1481 26.5956 13.7087 26.6186 13.2576V8.75098L17.7172 14.3135Z" fill="#FFC727"/>
<path opacity="0.2" d="M17.7172 14.3135V19.9597L25.3415 15.5174C25.7147 15.2675 26.0246 14.9329 26.2463 14.5405C26.4681 14.1481 26.5956 13.7087 26.6186 13.2576V8.75098L17.7172 14.3135Z" fill="black"/>
<path d="M0.92952 22.9598V28.2132C0.92952 29.0437 1.50422 29.385 2.20662 28.9729L10.4439 24.183V18.5497L0.92952 22.9598Z" fill="#FFC727"/>
<path opacity="0.2" d="M0.92952 22.9598V28.2132C0.92952 29.0437 1.50422 29.385 2.20662 28.9729L10.4439 24.183V18.5497L0.92952 22.9598Z" fill="black"/>
<path d="M89.4968 53.798L88.4879 52.24L49.9577 87.9198L48.0867 87.6494L48.1187 87.6944C48.3154 88.0251 48.6329 88.2649 49.0029 88.3623C49.3729 88.4598 49.7661 88.4073 50.0982 88.2159L55.4109 85.1256C55.8882 84.8444 56.3354 84.5143 56.7455 84.1406L89.4968 53.798Z" fill="#FFC727"/>
<path opacity="0.2" d="M89.4968 53.798L88.4879 52.24L49.9577 87.9198L48.0867 87.6494L48.1187 87.6944C48.3154 88.0251 48.6329 88.2649 49.0029 88.3623C49.3729 88.4598 49.7661 88.4073 50.0982 88.2159L55.4109 85.1256C55.8882 84.8444 56.3354 84.5143 56.7455 84.1406L89.4968 53.798Z" fill="black"/>
<path d="M10.4441 18.5497V24.183L48.0803 87.6173C48.1665 87.7816 48.29 87.923 48.4407 88.0299C48.5914 88.1369 48.7651 88.2064 48.9475 88.2328C49.13 88.2591 49.316 88.2416 49.4905 88.1816C49.6649 88.1217 49.8228 88.0209 49.9513 87.8877L87.3769 53.2831C87.5086 53.1507 87.6685 53.0504 87.8444 52.9895C88.0203 52.9287 88.2076 52.909 88.3922 52.932C88.5768 52.9549 88.7537 53.0199 88.9097 53.122C89.0657 53.2241 89.1966 53.3606 89.2925 53.5213L123.289 105.946L127.325 112.159C127.509 112.463 127.794 112.691 128.129 112.803V107.15L127.312 106.507L123.283 100.294L89.2989 47.8751C89.203 47.7145 89.0721 47.5779 88.9161 47.4758C88.7601 47.3737 88.5832 47.3087 88.3986 47.2858C88.214 47.2628 88.0267 47.2825 87.8508 47.3433C87.6749 47.4042 87.515 47.5045 87.3832 47.6369L49.9577 82.2415C49.8286 82.3734 49.6706 82.473 49.4963 82.5322C49.3221 82.5914 49.1365 82.6085 48.9545 82.5822C48.7726 82.5559 48.5992 82.4869 48.4485 82.3808C48.2978 82.2746 48.1739 82.1343 48.0867 81.9711L10.4441 18.5497Z" fill="#FFC727"/>
<path d="M128.142 107.112V112.764C128.352 112.836 128.574 112.861 128.794 112.839C129.015 112.817 129.228 112.747 129.419 112.636L133.531 110.247H133.57C133.939 110 134.247 109.669 134.468 109.281C134.69 108.894 134.819 108.46 134.847 108.013V103.198L128.142 107.112Z" fill="#FFC727"/>
<path opacity="0.2" d="M128.142 107.112V112.764C128.352 112.836 128.574 112.861 128.794 112.839C129.015 112.817 129.228 112.747 129.419 112.636L133.531 110.247H133.57C133.939 110 134.247 109.669 134.468 109.281C134.69 108.894 134.819 108.46 134.847 108.013V103.198L128.142 107.112Z" fill="black"/>
<path d="M17.7172 14.3135L26.1269 9.42057C26.8421 9.00209 26.7974 8.42266 26.0247 8.13295L5.50805 0.181937C5.34228 0.105671 5.16069 0.0709441 4.97873 0.0807145C4.79678 0.0904849 4.61986 0.144463 4.46307 0.23805C4.30627 0.331636 4.17425 0.462056 4.07824 0.618194C3.98222 0.774332 3.92508 0.95156 3.91167 1.13477L0.942395 22.7087C0.827455 23.5328 1.31915 23.8612 2.03432 23.4427L10.4441 18.5497L48.853 83.2588L55.1746 77.413L17.7172 14.3199V14.3135Z" fill="#FFC727"/>
<path opacity="0.3" d="M17.7172 14.3135L26.1269 9.42057C26.8421 9.00209 26.7974 8.42266 26.0247 8.13295L5.50805 0.181937C5.34228 0.105671 5.16069 0.0709441 4.97873 0.0807145C4.79678 0.0904849 4.61986 0.144463 4.46307 0.23805C4.30627 0.331636 4.17425 0.462056 4.07824 0.618194C3.98222 0.774332 3.92508 0.95156 3.91167 1.13477L0.942395 22.7087C0.827455 23.5328 1.31915 23.8612 2.03432 23.4427L10.4441 18.5497L48.853 83.2588L55.1746 77.413L17.7172 14.3199V14.3135Z" fill="white"/>
<path d="M134.598 102.251L96.6103 43.6389C96.3897 43.3039 96.0487 43.0683 95.6592 42.9819C95.2696 42.8954 94.862 42.9648 94.5222 43.1754L87.6578 47.4567C87.9388 47.3013 88.2674 47.2581 88.5785 47.3356C88.8896 47.4131 89.1604 47.6057 89.3372 47.8752L127.357 106.462C127.58 106.798 127.921 107.037 128.312 107.13C128.703 107.223 129.115 107.164 129.464 106.964L134.157 104.234C134.319 104.137 134.46 104.007 134.571 103.853C134.682 103.699 134.76 103.524 134.802 103.338C134.843 103.153 134.846 102.96 134.811 102.774C134.776 102.587 134.703 102.409 134.598 102.251Z" fill="#FFC727"/>
<path opacity="0.3" d="M134.598 102.251L96.6103 43.6389C96.3897 43.3039 96.0487 43.0683 95.6592 42.9819C95.2696 42.8954 94.862 42.9648 94.5222 43.1754L87.6578 47.4567C87.9388 47.3013 88.2674 47.2581 88.5785 47.3356C88.8896 47.4131 89.1604 47.6057 89.3372 47.8752L127.357 106.462C127.58 106.798 127.921 107.037 128.312 107.13C128.703 107.223 129.115 107.164 129.464 106.964L134.157 104.234C134.319 104.137 134.46 104.007 134.571 103.853C134.682 103.699 134.76 103.524 134.802 103.338C134.843 103.153 134.846 102.96 134.811 102.774C134.776 102.587 134.703 102.409 134.598 102.251Z" fill="white"/>
</svg>
