<svg width="145" height="145" viewBox="0 0 145 145" fill="none" xmlns="http://www.w3.org/2000/svg">
<path d="M22.7915 30.2344V35.8806L30.4158 31.4383C30.7889 31.1884 31.0988 30.8538 31.3206 30.4614C31.5424 30.069 31.6699 29.6296 31.6929 29.1785V24.6719L22.7915 30.2344Z" fill="#FFC727"/>
<path opacity="0.2" d="M22.7915 30.2344V35.8806L30.4158 31.4383C30.7889 31.1884 31.0988 30.8538 31.3206 30.4614C31.5424 30.069 31.6699 29.6296 31.6929 29.1785V24.6719L22.7915 30.2344Z" fill="black"/>
<path d="M6.0038 38.8807V44.1341C6.0038 44.9646 6.5785 45.3059 7.2809 44.8938L15.5182 40.1039V34.4706L6.0038 38.8807Z" fill="#FFC727"/>
<path opacity="0.2" d="M6.0038 38.8807V44.1341C6.0038 44.9646 6.5785 45.3059 7.2809 44.8938L15.5182 40.1039V34.4706L6.0038 38.8807Z" fill="black"/>
<path d="M94.5711 69.7189L93.5622 68.1609L55.032 103.841L53.161 103.57L53.1929 103.615C53.3897 103.946 53.7071 104.186 54.0772 104.283C54.4472 104.381 54.8404 104.328 55.1724 104.137L60.4852 101.047C60.9624 100.765 61.4097 100.435 61.8198 100.062L94.5711 69.7189Z" fill="#FFC727"/>
<path opacity="0.2" d="M94.5711 69.7189L93.5622 68.1609L55.032 103.841L53.161 103.57L53.1929 103.615C53.3897 103.946 53.7071 104.186 54.0772 104.283C54.4472 104.381 54.8404 104.328 55.1724 104.137L60.4852 101.047C60.9624 100.765 61.4097 100.435 61.8198 100.062L94.5711 69.7189Z" fill="black"/>
<path d="M15.5183 34.4706V40.1039L53.1546 103.538C53.2408 103.702 53.3643 103.844 53.515 103.951C53.6657 104.058 53.8394 104.127 54.0218 104.154C54.2043 104.18 54.3903 104.163 54.5648 104.103C54.7392 104.043 54.8971 103.942 55.0256 103.809L92.4511 69.204C92.5829 69.0716 92.7428 68.9713 92.9187 68.9104C93.0946 68.8496 93.2819 68.8299 93.4665 68.8529C93.651 68.8758 93.828 68.9408 93.984 69.0429C94.14 69.145 94.2709 69.2815 94.3668 69.4422L128.363 121.867L132.399 128.08C132.584 128.383 132.869 128.611 133.204 128.724V123.071L132.386 122.427L128.357 116.215L94.3732 63.796C94.2773 63.6353 94.1464 63.4988 93.9904 63.3967C93.8344 63.2946 93.6574 63.2296 93.4729 63.2067C93.2883 63.1837 93.101 63.2034 92.9251 63.2642C92.7492 63.3251 92.5893 63.4254 92.4575 63.5578L55.032 98.1624C54.9029 98.2943 54.7448 98.3939 54.5706 98.4531C54.3964 98.5123 54.2108 98.5294 54.0288 98.5031C53.8468 98.4768 53.6735 98.4078 53.5228 98.3017C53.3721 98.1955 53.2482 98.0552 53.161 97.892L15.5183 34.4706Z" fill="#FFC727"/>
<path d="M133.216 123.033V128.685C133.426 128.757 133.648 128.782 133.869 128.76C134.089 128.738 134.302 128.668 134.493 128.557L138.606 126.168H138.644C139.013 125.92 139.321 125.59 139.543 125.202C139.764 124.815 139.894 124.381 139.921 123.934V119.118L133.216 123.033Z" fill="#FFC727"/>
<path opacity="0.2" d="M133.216 123.033V128.685C133.426 128.757 133.648 128.782 133.869 128.76C134.089 128.738 134.302 128.668 134.493 128.557L138.606 126.168H138.644C139.013 125.92 139.321 125.59 139.543 125.202C139.764 124.815 139.894 124.381 139.921 123.934V119.118L133.216 123.033Z" fill="black"/>
<path d="M22.7915 30.2344L31.2012 25.3415C31.9164 24.923 31.8717 24.3436 31.099 24.0539L10.5823 16.1028C10.4166 16.0266 10.235 15.9918 10.053 16.0016C9.87106 16.0114 9.69414 16.0654 9.53735 16.1589C9.38055 16.2525 9.24853 16.383 9.15251 16.5391C9.0565 16.6952 8.99936 16.8725 8.98595 17.0557L6.01667 38.6296C5.90174 39.4537 6.39342 39.7821 7.1086 39.3636L15.5183 34.4706L53.9273 99.1797L60.2489 93.3339L22.7915 30.2408V30.2344Z" fill="#FFC727"/>
<path opacity="0.3" d="M22.7915 30.2344L31.2012 25.3415C31.9164 24.923 31.8717 24.3436 31.099 24.0539L10.5823 16.1028C10.4166 16.0266 10.235 15.9918 10.053 16.0016C9.87106 16.0114 9.69414 16.0654 9.53735 16.1589C9.38055 16.2525 9.24853 16.383 9.15251 16.5391C9.0565 16.6952 8.99936 16.8725 8.98595 17.0557L6.01667 38.6296C5.90174 39.4537 6.39342 39.7821 7.1086 39.3636L15.5183 34.4706L53.9273 99.1797L60.2489 93.3339L22.7915 30.2408V30.2344Z" fill="white"/>
<path d="M139.672 118.172L101.685 59.5598C101.464 59.2248 101.123 58.9892 100.733 58.9028C100.344 58.8163 99.9363 58.8857 99.5965 59.0963L92.7321 63.3776C93.013 63.2222 93.3417 63.179 93.6528 63.2565C93.9638 63.334 94.2347 63.5266 94.4115 63.7961L132.431 122.383C132.654 122.719 132.996 122.958 133.387 123.051C133.778 123.144 134.189 123.085 134.538 122.885L139.231 120.155C139.394 120.058 139.535 119.928 139.645 119.774C139.756 119.62 139.835 119.445 139.876 119.259C139.917 119.074 139.92 118.881 139.885 118.694C139.85 118.507 139.778 118.33 139.672 118.172Z" fill="#FFC727"/>
<path opacity="0.3" d="M139.672 118.172L101.685 59.5598C101.464 59.2248 101.123 58.9892 100.733 58.9028C100.344 58.8163 99.9363 58.8857 99.5965 59.0963L92.7321 63.3776C93.013 63.2222 93.3417 63.179 93.6528 63.2565C93.9638 63.334 94.2347 63.5266 94.4115 63.7961L132.431 122.383C132.654 122.719 132.996 122.958 133.387 123.051C133.778 123.144 134.189 123.085 134.538 122.885L139.231 120.155C139.394 120.058 139.535 119.928 139.645 119.774C139.756 119.62 139.835 119.445 139.876 119.259C139.917 119.074 139.92 118.881 139.885 118.694C139.85 118.507 139.778 118.33 139.672 118.172Z" fill="white"/>
</svg>
