<svg width="80" height="102" viewBox="0 0 80 102" fill="none" xmlns="http://www.w3.org/2000/svg">
<path d="M76.1949 86.039C78.077 90.3753 73.6503 96.4882 66.3028 99.6953C58.9552 102.902 51.457 101.954 49.575 97.6175C47.6929 93.2812 52.1045 87.0779 59.452 83.9612C66.7996 80.8445 74.2978 81.6877 76.1949 86.039Z" fill="#263238"/>
<path d="M75.6679 69.1156C76.0739 68.1163 76.0739 66.9981 75.6679 65.9989C73.816 61.7379 63.2463 62.2348 52.0593 67.098C40.8723 71.9613 33.3139 79.3691 35.1659 83.6602C35.6428 84.6252 36.4733 85.3693 37.4846 85.738C37.4542 86.2528 37.5417 86.7678 37.7405 87.2436C38.2201 88.2024 39.0588 88.9329 40.0743 89.2763C40.0299 89.7903 40.1127 90.3074 40.3152 90.7819C40.555 91.2527 40.8862 91.6709 41.2895 92.0121C41.6928 92.3534 42.1601 92.6108 42.664 92.7694C42.6061 93.3119 42.6837 93.8602 42.8899 94.3654C43.1312 94.8371 43.4669 95.2543 43.8761 95.591C44.2854 95.9277 44.7594 96.1767 45.2688 96.3227C45.1826 96.8724 45.2503 97.4353 45.4645 97.9488C46.9702 101.487 55.7933 101.081 65.038 97.0454C74.2827 93.0103 80.6215 86.8371 79.0857 83.2988C78.8471 82.7945 78.478 82.363 78.0167 82.0491C78.2528 81.587 78.3918 81.0815 78.4255 80.5637C78.4592 80.0459 78.3867 79.5266 78.2125 79.0378C77.9872 78.5469 77.6399 78.1218 77.2037 77.8032C77.6411 76.8566 77.695 75.7774 77.3543 74.7919C77.1352 74.3057 76.7989 73.8815 76.3756 73.5573C76.8138 72.5819 76.8516 71.4736 76.481 70.4707C76.3232 69.96 76.0443 69.4951 75.6679 69.1156Z" fill="#263238"/>
<path opacity="0.3" d="M75.6679 69.1156C76.0739 68.1163 76.0739 66.9981 75.6679 65.9989C73.816 61.7379 63.2463 62.2348 52.0593 67.098C40.8723 71.9613 33.3139 79.3691 35.1659 83.6602C35.6428 84.6252 36.4733 85.3693 37.4846 85.738C37.4542 86.2528 37.5417 86.7678 37.7405 87.2436C38.2201 88.2024 39.0588 88.9329 40.0743 89.2763C40.0299 89.7903 40.1127 90.3074 40.3152 90.7819C40.555 91.2527 40.8862 91.6709 41.2895 92.0121C41.6928 92.3534 42.1601 92.6108 42.664 92.7694C42.6061 93.3119 42.6837 93.8602 42.8899 94.3654C43.1312 94.8371 43.4669 95.2543 43.8761 95.591C44.2854 95.9277 44.7594 96.1767 45.2688 96.3227C45.1826 96.8724 45.2503 97.4353 45.4645 97.9488C46.9702 101.487 55.7933 101.081 65.038 97.0454C74.2827 93.0103 80.6215 86.8371 79.0857 83.2988C78.8471 82.7945 78.478 82.363 78.0167 82.0491C78.2528 81.587 78.3918 81.0815 78.4255 80.5637C78.4592 80.0459 78.3867 79.5266 78.2125 79.0378C77.9872 78.5469 77.6399 78.1218 77.2037 77.8032C77.6411 76.8566 77.695 75.7774 77.3543 74.7919C77.1352 74.3057 76.7989 73.8815 76.3756 73.5573C76.8138 72.5819 76.8516 71.4736 76.481 70.4707C76.3232 69.96 76.0443 69.4951 75.6679 69.1156Z" fill="white"/>
<path d="M75.9841 23.9609C73.3658 17.8905 69.2529 12.5821 64.0288 8.53067C58.8048 4.47926 52.6398 1.81683 46.1088 0.791666C39.5778 -0.233496 32.8936 0.412013 26.6794 2.66799C20.4653 4.92396 14.9237 8.71691 10.5715 13.6931C6.21925 18.6693 3.1981 24.6667 1.78982 31.1259C0.38154 37.5851 0.632003 44.2958 2.51783 50.6321C4.40366 56.9683 7.86343 62.7238 12.5745 67.3618C17.2856 71.9997 23.0945 75.3691 29.4595 77.1556C30.4759 77.4317 31.4087 77.9539 32.1755 78.676C32.9423 79.3981 33.5194 80.298 33.856 81.2961C33.882 81.3946 33.9173 81.4904 33.9613 81.5822C35.8434 85.9185 46.5787 85.4216 57.9464 80.4831C69.3141 75.5445 76.9929 68.0313 75.0958 63.695C75.062 63.602 75.0217 63.5115 74.9753 63.424C74.4744 62.4831 74.2125 61.4335 74.2125 60.3675C74.2125 59.3016 74.4744 58.252 74.9753 57.3111C77.6043 52.1743 79.0586 46.5173 79.233 40.7495C79.4075 34.9817 78.2978 29.2472 75.9841 23.9609Z" fill="#FFC727"/>
<path opacity="0.3" d="M75.9841 23.9609C73.3658 17.8905 69.2529 12.5821 64.0288 8.53067C58.8048 4.47926 52.6398 1.81683 46.1088 0.791666C39.5778 -0.233496 32.8936 0.412013 26.6794 2.66799C20.4653 4.92396 14.9237 8.71691 10.5715 13.6931C6.21925 18.6693 3.1981 24.6667 1.78982 31.1259C0.38154 37.5851 0.632003 44.2958 2.51783 50.6321C4.40366 56.9683 7.86343 62.7238 12.5745 67.3618C17.2856 71.9997 23.0945 75.3691 29.4595 77.1556C30.4759 77.4317 31.4087 77.9539 32.1755 78.676C32.9423 79.3981 33.5194 80.298 33.856 81.2961C33.882 81.3946 33.9173 81.4904 33.9613 81.5822C35.8434 85.9185 46.5787 85.4216 57.9464 80.4831C69.3141 75.5445 76.9929 68.0313 75.0958 63.695C75.062 63.602 75.0217 63.5115 74.9753 63.424C74.4744 62.4831 74.2125 61.4335 74.2125 60.3675C74.2125 59.3016 74.4744 58.252 74.9753 57.3111C77.6043 52.1743 79.0586 46.5173 79.233 40.7495C79.4075 34.9817 78.2978 29.2472 75.9841 23.9609Z" fill="white"/>
<path d="M47.8435 77.8782C47.7505 77.8794 47.6592 77.8529 47.5814 77.8019C47.5036 77.751 47.4428 77.6779 47.4069 77.5921C41.851 64.8242 27.4268 59.5243 27.2763 59.5243C27.1877 59.4907 27.1114 59.4309 27.0577 59.3529C27.0039 59.2749 26.9751 59.1824 26.9751 59.0877C26.9706 58.996 26.9941 58.9051 27.0425 58.827C27.0909 58.749 27.162 58.6876 27.2462 58.651L33.7205 55.8355V50.129C33.7135 50.0408 33.7344 49.9526 33.7804 49.8769C33.8263 49.8012 33.8949 49.742 33.9764 49.7075C34.052 49.6638 34.1376 49.6409 34.2249 49.6409C34.3121 49.6409 34.3978 49.6638 34.4733 49.7075L41.8058 55.444L42.6189 46.1692C42.6261 46.084 42.6566 46.0024 42.7071 45.9334C42.7575 45.8643 42.826 45.8105 42.9049 45.7777C42.9836 45.7409 43.0715 45.7284 43.1573 45.7418C43.2432 45.7552 43.3231 45.7939 43.3868 45.853L51.1559 52.5832L51.5173 42.3147C51.5212 42.2246 51.5519 42.1378 51.6056 42.0653C51.6593 41.9929 51.7334 41.9381 51.8184 41.9082C51.9004 41.8699 51.9922 41.8581 52.0812 41.8742C52.1702 41.8904 52.252 41.9338 52.3153 41.9985L56.4558 45.9132L62.9151 43.0976C63.0114 43.0567 63.1186 43.0492 63.2197 43.0765C63.3207 43.1038 63.4096 43.1643 63.4722 43.2482C63.5344 43.3277 63.5683 43.4258 63.5683 43.5267C63.5683 43.6277 63.5344 43.7258 63.4722 43.8053C56.9075 52.7639 61.8762 71.163 61.9665 71.3437C61.9947 71.4633 61.9761 71.5892 61.9145 71.6955C61.8529 71.8019 61.753 71.8807 61.6353 71.9158C61.5759 71.9339 61.5135 71.9396 61.4519 71.9326C61.3903 71.9255 61.3308 71.9058 61.2771 71.8747C61.2234 71.8436 61.1767 71.8018 61.1399 71.7519C61.1031 71.702 61.0769 71.645 61.0631 71.5846C60.8523 70.8468 56.3504 54.2093 61.8762 44.5882L56.5612 46.9069C56.4759 46.9406 56.3828 46.95 56.2925 46.9341C56.2021 46.9181 56.1179 46.8775 56.0493 46.8166L52.4357 43.3837L52.0744 53.592C52.0665 53.679 52.0352 53.7622 51.9837 53.8327C51.9323 53.9032 51.8626 53.9584 51.7822 53.9925C51.7018 54.0265 51.6137 54.038 51.5272 54.0258C51.4408 54.0136 51.3593 53.9782 51.2914 53.9233L43.4921 47.1629L42.6791 56.3926C42.6722 56.4739 42.6433 56.5519 42.5956 56.6182C42.5479 56.6845 42.4831 56.7366 42.4081 56.769C42.3354 56.8128 42.2521 56.8359 42.1672 56.8359C42.0823 56.8359 41.999 56.8128 41.9263 56.769L34.669 51.1077V56.1516C34.6724 56.2451 34.6467 56.3373 34.5955 56.4155C34.5442 56.4937 34.47 56.5541 34.3829 56.5883L28.6615 59.0726C32.1697 60.5783 43.462 66.1793 48.235 77.2609C48.2599 77.3172 48.2735 77.3779 48.2749 77.4395C48.2763 77.5011 48.2654 77.5623 48.2431 77.6197C48.2207 77.6771 48.1871 77.7295 48.1444 77.7738C48.1017 77.8182 48.0506 77.8537 47.9941 77.8782C47.9443 77.8876 47.8932 77.8876 47.8435 77.8782Z" fill="#263238"/>
<path opacity="0.4" d="M39.171 9.56676C45.7356 15.1076 44.6214 27.2281 36.6866 36.6685C28.7518 46.1089 16.9927 49.1805 10.4431 43.6547C3.89353 38.129 4.99265 25.9934 12.9274 16.553C20.8622 7.11255 32.5913 4.02596 39.171 9.56676Z" fill="white"/>
<path opacity="0.4" d="M48.4156 36.533C51.0505 38.7463 50.5988 43.6247 47.4219 47.4038C44.2449 51.183 39.5172 52.4327 36.8823 50.2044C34.2474 47.976 34.6991 43.1127 37.876 39.3335C41.0529 35.5544 45.7807 34.3047 48.4156 36.533Z" fill="white"/>
</svg>
