<svg width="145" height="145" viewBox="0 0 145 145" fill="none" xmlns="http://www.w3.org/2000/svg">
<path d="M107.304 107.721C109.186 112.057 104.759 118.17 97.4115 121.377C90.0639 124.584 82.5657 123.636 80.6837 119.299C78.8016 114.963 83.2132 108.76 90.5607 105.643C97.9083 102.526 105.406 103.37 107.304 107.721Z" fill="#263238"/>
<path d="M106.777 90.7975C107.183 89.7982 107.183 88.68 106.777 87.6808C104.925 83.4198 94.355 83.9166 83.168 88.7799C71.981 93.6432 64.4226 101.051 66.2746 105.342C66.7516 106.307 67.582 107.051 68.5933 107.42C68.5629 107.935 68.6504 108.45 68.8493 108.926C69.3288 109.884 70.1675 110.615 71.183 110.958C71.1386 111.472 71.2214 111.989 71.4239 112.464C71.6637 112.935 71.9949 113.353 72.3982 113.694C72.8015 114.035 73.2688 114.293 73.7727 114.451C73.7148 114.994 73.7924 115.542 73.9986 116.047C74.2399 116.519 74.5756 116.936 74.9848 117.273C75.3941 117.61 75.8681 117.859 76.3775 118.005C76.2913 118.554 76.359 119.117 76.5732 119.631C78.0789 123.169 86.902 122.762 96.1467 118.727C105.391 114.692 111.73 108.519 110.194 104.981C109.956 104.476 109.587 104.045 109.125 103.731C109.361 103.269 109.501 102.763 109.534 102.246C109.568 101.728 109.495 101.209 109.321 100.72C109.096 100.229 108.749 99.8037 108.312 99.4851C108.75 98.5385 108.804 97.4593 108.463 96.4738C108.244 95.9876 107.908 95.5634 107.484 95.2391C107.922 94.2638 107.96 93.1555 107.59 92.1525C107.432 91.6419 107.153 91.177 106.777 90.7975V90.7975Z" fill="#263238"/>
<path opacity="0.3" d="M106.777 90.7975C107.183 89.7982 107.183 88.68 106.777 87.6808C104.925 83.4198 94.355 83.9166 83.168 88.7799C71.981 93.6432 64.4226 101.051 66.2746 105.342C66.7516 106.307 67.582 107.051 68.5933 107.42C68.5629 107.935 68.6504 108.45 68.8493 108.926C69.3288 109.884 70.1675 110.615 71.183 110.958C71.1386 111.472 71.2214 111.989 71.4239 112.464C71.6637 112.935 71.9949 113.353 72.3982 113.694C72.8015 114.035 73.2688 114.293 73.7727 114.451C73.7148 114.994 73.7924 115.542 73.9986 116.047C74.2399 116.519 74.5756 116.936 74.9848 117.273C75.3941 117.61 75.8681 117.859 76.3775 118.005C76.2913 118.554 76.359 119.117 76.5732 119.631C78.0789 123.169 86.902 122.762 96.1467 118.727C105.391 114.692 111.73 108.519 110.194 104.981C109.956 104.476 109.587 104.045 109.125 103.731C109.361 103.269 109.501 102.763 109.534 102.246C109.568 101.728 109.495 101.209 109.321 100.72C109.096 100.229 108.749 99.8037 108.312 99.4851C108.75 98.5385 108.804 97.4593 108.463 96.4738C108.244 95.9876 107.908 95.5634 107.484 95.2391C107.922 94.2638 107.96 93.1555 107.59 92.1525C107.432 91.6419 107.153 91.177 106.777 90.7975V90.7975Z" fill="white"/>
<path d="M107.093 45.6428C104.475 39.5724 100.362 34.264 95.1375 30.2126C89.9135 26.1611 83.7485 23.4987 77.2175 22.4736C70.6865 21.4484 64.0023 22.0939 57.7881 24.3499C51.574 26.6058 46.0324 30.3988 41.6802 35.375C37.328 40.3512 34.3068 46.3486 32.8985 52.8078C31.4902 59.267 31.7407 65.9777 33.6265 72.3139C35.5124 78.6502 38.9721 84.4057 43.6832 89.0437C48.3943 93.6816 54.2032 97.0509 60.5682 98.8374C61.5846 99.1136 62.5174 99.6358 63.2842 100.358C64.051 101.08 64.6282 101.98 64.9647 102.978C64.9907 103.076 65.026 103.172 65.0701 103.264C66.9521 107.6 77.6874 107.103 89.0551 102.165C100.423 97.2264 108.102 89.7132 106.204 85.3769C106.171 85.2839 106.13 85.1933 106.084 85.1059C105.583 84.165 105.321 83.1154 105.321 82.0494C105.321 80.9835 105.583 79.9339 106.084 78.993C108.713 73.8561 110.167 68.1992 110.342 62.4314C110.516 56.6636 109.406 50.9291 107.093 45.6428V45.6428Z" fill="#FFC727"/>
<path opacity="0.3" d="M107.093 45.6428C104.475 39.5724 100.362 34.264 95.1375 30.2126C89.9135 26.1611 83.7485 23.4987 77.2175 22.4736C70.6865 21.4484 64.0023 22.0939 57.7881 24.3499C51.574 26.6058 46.0324 30.3988 41.6802 35.375C37.328 40.3512 34.3068 46.3486 32.8985 52.8078C31.4902 59.267 31.7407 65.9777 33.6265 72.3139C35.5124 78.6502 38.9721 84.4057 43.6832 89.0437C48.3943 93.6816 54.2032 97.0509 60.5682 98.8374C61.5846 99.1136 62.5174 99.6358 63.2842 100.358C64.051 101.08 64.6282 101.98 64.9647 102.978C64.9907 103.076 65.026 103.172 65.0701 103.264C66.9521 107.6 77.6874 107.103 89.0551 102.165C100.423 97.2264 108.102 89.7132 106.204 85.3769C106.171 85.2839 106.13 85.1933 106.084 85.1059C105.583 84.165 105.321 83.1154 105.321 82.0494C105.321 80.9835 105.583 79.9339 106.084 78.993C108.713 73.8561 110.167 68.1992 110.342 62.4314C110.516 56.6636 109.406 50.9291 107.093 45.6428V45.6428Z" fill="white"/>
<path d="M78.9522 99.5601C78.8592 99.5613 78.7679 99.5348 78.6901 99.4838C78.6123 99.4328 78.5515 99.3598 78.5156 99.274C72.9597 86.5061 58.5355 81.2062 58.385 81.2062C58.2964 81.1726 58.2202 81.1128 58.1664 81.0348C58.1126 80.9568 58.0838 80.8643 58.0838 80.7695C58.0793 80.6779 58.1028 80.5869 58.1512 80.5089C58.1996 80.4309 58.2707 80.3695 58.3549 80.3329L64.8292 77.5173V71.8109C64.8222 71.7227 64.8431 71.6345 64.8891 71.5588C64.935 71.4831 65.0036 71.4238 65.0851 71.3893C65.1607 71.3457 65.2463 71.3228 65.3336 71.3228C65.4208 71.3228 65.5065 71.3457 65.582 71.3893L72.9145 77.1259L73.7276 67.8511C73.7348 67.7659 73.7653 67.6843 73.8158 67.6153C73.8662 67.5462 73.9347 67.4924 74.0136 67.4596C74.0923 67.4228 74.1802 67.4103 74.266 67.4237C74.3519 67.4371 74.4318 67.4758 74.4955 67.5349L82.2646 74.2651L82.626 63.9966C82.6299 63.9065 82.6606 63.8196 82.7143 63.7472C82.768 63.6747 82.8421 63.62 82.9271 63.5901C83.0091 63.5518 83.1009 63.5399 83.1899 63.5561C83.2789 63.5723 83.3607 63.6157 83.424 63.6804L87.5645 67.5951L94.0238 64.7795C94.1201 64.7385 94.2273 64.7311 94.3284 64.7584C94.4294 64.7857 94.5183 64.8462 94.5809 64.9301C94.6431 65.0096 94.677 65.1076 94.677 65.2086C94.677 65.3096 94.6431 65.4077 94.5809 65.4872C88.0162 74.4458 92.9849 92.8449 93.0752 93.0256C93.1034 93.1452 93.0848 93.2711 93.0232 93.3774C92.9616 93.4838 92.8617 93.5626 92.744 93.5977C92.6846 93.6158 92.6222 93.6215 92.5606 93.6144C92.499 93.6074 92.4395 93.5877 92.3858 93.5566C92.3321 93.5255 92.2854 93.4837 92.2486 93.4338C92.2118 93.3839 92.1856 93.3269 92.1718 93.2665C91.961 92.5287 87.4591 75.8912 92.9849 66.2701L87.6699 68.5888C87.5846 68.6225 87.4915 68.6319 87.4012 68.6159C87.3108 68.6 87.2267 68.5594 87.158 68.4985L83.5444 65.0656L83.1831 75.2739C83.1752 75.3609 83.1439 75.4441 83.0925 75.5146C83.041 75.5851 82.9713 75.6403 82.8909 75.6743C82.8105 75.7084 82.7224 75.7199 82.6359 75.7077C82.5495 75.6955 82.468 75.6601 82.4001 75.6052L74.6008 68.8448L73.7878 78.0744C73.7809 78.1558 73.752 78.2338 73.7043 78.3001C73.6566 78.3664 73.5918 78.4185 73.5168 78.4509C73.4441 78.4947 73.3608 78.5178 73.2759 78.5178C73.191 78.5178 73.1077 78.4947 73.035 78.4509L65.7777 72.7896V77.8335C65.7811 77.927 65.7554 78.0191 65.7042 78.0973C65.6529 78.1756 65.5787 78.2359 65.4916 78.2702L59.7702 80.7545C63.2784 82.2602 74.5707 87.8612 79.3437 98.9428C79.3686 98.9991 79.3822 99.0598 79.3836 99.1214C79.385 99.183 79.3741 99.2442 79.3518 99.3016C79.3294 99.359 79.2958 99.4114 79.2531 99.4557C79.2104 99.5001 79.1593 99.5356 79.1028 99.5601C79.053 99.5695 79.0019 99.5695 78.9522 99.5601V99.5601Z" fill="#263238"/>
<path opacity="0.4" d="M70.2797 31.2486C76.8443 36.7894 75.7301 48.9099 67.7953 58.3504C59.8605 67.7908 48.1014 70.8624 41.5518 65.3366C35.0022 59.8109 36.1014 47.6753 44.0361 38.2349C51.9709 28.7944 63.7 25.7078 70.2797 31.2486Z" fill="white"/>
<path opacity="0.4" d="M79.5243 58.2149C82.1592 60.4282 81.7075 65.3065 78.5306 69.0857C75.3536 72.8649 70.6259 74.1146 67.991 71.8862C65.3561 69.6579 65.8078 64.7946 68.9847 61.0154C72.1617 57.2362 76.8894 55.9866 79.5243 58.2149Z" fill="white"/>
</svg>
