<svg width="132" height="100" viewBox="0 0 132 100" fill="none" xmlns="http://www.w3.org/2000/svg">
<path d="M11.8886 20.8914L12.175 47.0911L114.025 45.9775L113.739 19.7779L11.8886 20.8914Z" fill="#FFC727"/>
<path opacity="0.7" d="M11.8886 20.8914L12.175 47.0911L114.025 45.9775L113.739 19.7779L11.8886 20.8914Z" fill="white"/>
<path opacity="0.3" d="M16.7629 22.7913L17.0065 45.0781L26.7062 44.9721L26.4626 22.6853L16.7629 22.7913Z" fill="#263238"/>
<path opacity="0.416667" d="M28.4935 22.6629L28.7371 44.9497L38.4368 44.8437L38.1932 22.5568L28.4935 22.6629Z" fill="#263238"/>
<path opacity="0.533333" d="M40.2241 22.535L40.4678 44.8218L50.1675 44.7157L49.9238 22.4289L40.2241 22.535Z" fill="#263238"/>
<path opacity="0.65" d="M51.961 22.4068L52.2047 44.6936L61.9044 44.5876L61.6607 22.3007L51.961 22.4068Z" fill="#263238"/>
<path opacity="0.766667" d="M63.6917 22.2786L63.9353 44.5654L73.6351 44.4594L73.3914 22.1726L63.6917 22.2786Z" fill="#263238"/>
<path opacity="0.883333" d="M75.4222 22.1502L75.6659 44.437L85.3656 44.331L85.1219 22.0442L75.4222 22.1502Z" fill="#263238"/>
<path d="M87.159 22.022L87.4026 44.3088L97.1023 44.2028L96.8587 21.916L87.159 22.022Z" fill="#263238"/>
<path d="M18.149 39.2986L22.6984 65.0615L122.83 45.4797L118.28 19.7168L18.149 39.2986Z" fill="#FFC727"/>
<path opacity="0.8" d="M18.149 39.2986L22.6984 65.0615L122.83 45.4797L118.28 19.7168L18.149 39.2986Z" fill="white"/>
<path d="M23.2543 40.2879L27.1242 62.2031L36.6602 60.3382L32.7903 38.423L23.2543 40.2879Z" fill="#FFC727"/>
<path d="M34.7913 38.0288L38.6612 59.9441L48.1972 58.0792L44.3273 36.1639L34.7913 38.0288Z" fill="#FFC727"/>
<path d="M46.3284 35.7708L50.1983 57.686L59.7343 55.8212L55.8644 33.9059L46.3284 35.7708Z" fill="#FFC727"/>
<path d="M57.8603 33.52L61.7302 55.4353L71.2663 53.5704L67.3964 31.6552L57.8603 33.52Z" fill="#FFC727"/>
<path d="M69.3972 31.2608L73.2671 53.176L82.8031 51.3111L78.9332 29.3959L69.3972 31.2608Z" fill="#FFC727"/>
<path d="M81.843 28.8088L85.6734 50.8335L95.2571 48.9878L91.4267 26.9631L81.843 28.8088Z" fill="#FFC727"/>
<path d="M92.4601 26.7522L96.33 48.6675L105.866 46.8026L101.996 24.8873L92.4601 26.7522Z" fill="#FFC727"/>
<path opacity="0.05" d="M23.2543 40.2879L27.1242 62.2031L36.6602 60.3382L32.7903 38.423L23.2543 40.2879Z" fill="black"/>
<path opacity="0.1" d="M34.7913 38.0288L38.6612 59.9441L48.1972 58.0792L44.3273 36.1639L34.7913 38.0288Z" fill="black"/>
<path opacity="0.2" d="M46.3284 35.7708L50.1983 57.686L59.7343 55.8212L55.8644 33.9059L46.3284 35.7708Z" fill="black"/>
<path opacity="0.3" d="M57.8603 33.52L61.7302 55.4353L71.2663 53.5704L67.3964 31.6552L57.8603 33.52Z" fill="black"/>
<path opacity="0.4" d="M69.3972 31.2608L73.2671 53.176L82.8031 51.3111L78.9332 29.3959L69.3972 31.2608Z" fill="black"/>
<path opacity="0.5" d="M81.843 28.8088L85.6734 50.8335L95.2571 48.9878L91.4267 26.9631L81.843 28.8088Z" fill="black"/>
<path opacity="0.6" d="M92.4601 26.7522L96.33 48.6675L105.866 46.8026L101.996 24.8873L92.4601 26.7522Z" fill="black"/>
<path d="M27.4649 57.3106L36.1823 81.8535L131.551 44.2107L122.833 19.6678L27.4649 57.3106Z" fill="#FFC727"/>
<path opacity="0.9" d="M27.4649 57.3106L36.1823 81.8535L131.551 44.2107L122.833 19.6678L27.4649 57.3106Z" fill="white"/>
<path d="M32.6527 57.3496L40.0681 78.2271L49.1506 74.6421L41.7351 53.7647L32.6527 57.3496Z" fill="#FFC727"/>
<path d="M43.6399 53.01L51.0553 73.8875L60.1378 70.3025L52.7223 49.4251L43.6399 53.01Z" fill="#FFC727"/>
<path d="M54.6294 48.6833L62.0448 69.5608L71.1272 65.9759L63.7118 45.0984L54.6294 48.6833Z" fill="#FFC727"/>
<path d="M65.6165 44.3437L73.0319 65.2212L82.1143 61.6363L74.6989 40.7588L65.6165 44.3437Z" fill="#FFC727"/>
<path d="M76.5975 40.0044L84.0129 60.8818L93.0953 57.2969L85.6799 36.4195L76.5975 40.0044Z" fill="#FFC727"/>
<path d="M87.5847 35.6716L95.0001 56.5491L104.083 52.9642L96.6671 32.0867L87.5847 35.6716Z" fill="#FFC727"/>
<path d="M98.5719 31.332L105.987 52.2095L115.07 48.6246L107.654 27.7471L98.5719 31.332Z" fill="#FFC727"/>
<path opacity="0.6" d="M32.6527 57.3496L40.0681 78.2271L49.1506 74.6421L41.7351 53.7647L32.6527 57.3496Z" fill="white"/>
<path opacity="0.5" d="M43.6399 53.01L51.0553 73.8875L60.1378 70.3025L52.7223 49.4251L43.6399 53.01Z" fill="white"/>
<path opacity="0.4" d="M54.6294 48.6833L62.0448 69.5608L71.1272 65.9759L63.7118 45.0984L54.6294 48.6833Z" fill="white"/>
<path opacity="0.3" d="M65.6165 44.3437L73.0319 65.2212L82.1143 61.6363L74.6989 40.7588L65.6165 44.3437Z" fill="white"/>
<path opacity="0.2" d="M76.5975 40.0044L84.0129 60.8818L93.0953 57.2969L85.6799 36.4195L76.5975 40.0044Z" fill="white"/>
<path opacity="0.1" d="M87.5847 35.6716L95.0001 56.5491L104.083 52.9642L96.6671 32.0867L87.5847 35.6716Z" fill="white"/>
</svg>
