<svg width="125" height="100" viewBox="0 0 125 100" fill="none" xmlns="http://www.w3.org/2000/svg">
<path d="M42.3387 87.4313L30.6114 75.7041C30.1115 75.2041 29.3009 75.2041 28.801 75.7041L23.4718 81.0332C22.9719 81.5332 22.9718 82.3438 23.4718 82.8437L35.199 94.5709C35.699 95.0709 36.5096 95.0709 37.0095 94.5709L42.3387 89.2418C42.8386 88.7418 42.8386 87.9312 42.3387 87.4313Z" fill="#263238"/>
<path d="M61.3577 56.6925L38.0247 80.0255L34.0901 76.0836C37.4967 72.677 35.5366 64.7281 35.5366 64.7281L42.01 58.2548C52.4831 56.8082 74.5576 41.1348 74.5576 41.1348L75.2808 41.858L61.4156 55.6582C61.3428 55.7216 61.2834 55.799 61.241 55.8857C61.1986 55.9724 61.1739 56.0668 61.1685 56.1632C61.1631 56.2596 61.1771 56.356 61.2096 56.447C61.2421 56.5379 61.2925 56.6214 61.3577 56.6925Z" fill="#9215DF"/>
<path d="M59.7882 76.0547L53.3149 82.5642C53.3149 82.5642 45.3588 80.5824 41.9594 84.0108L38.0248 80.0761L61.3578 56.7431C61.4303 56.8071 61.5149 56.8559 61.6066 56.8866C61.6983 56.9173 61.7953 56.9293 61.8917 56.9219C61.9881 56.9145 62.0821 56.8878 62.1681 56.8434C62.254 56.7991 62.3302 56.7379 62.3921 56.6636L76.2212 42.8345L76.9444 43.5578C76.9444 43.5578 61.2565 65.5888 59.7882 76.0547Z" fill="#9215DF"/>
<path opacity="0.2" d="M59.7882 76.0547L53.3149 82.5642C53.3149 82.5642 45.3588 80.5824 41.9594 84.0108L38.0248 80.0761L61.3578 56.7431C61.4303 56.8071 61.5149 56.8559 61.6066 56.8866C61.6983 56.9173 61.7953 56.9293 61.8917 56.9219C61.9881 56.9145 62.0821 56.8878 62.1681 56.8434C62.254 56.7991 62.3302 56.7379 62.3921 56.6636L76.2212 42.8345L76.9444 43.5578C76.9444 43.5578 61.2565 65.5888 59.7882 76.0547Z" fill="white"/>
<path d="M79.4975 89.573L79.0781 89.1535C82.4541 85.8563 85.1423 81.9219 86.9868 77.5782C88.8312 73.2345 89.7954 68.568 89.8233 63.8491C89.8511 59.1301 88.9422 54.4525 87.1492 50.0873C85.3562 45.7222 82.7147 41.7563 79.3779 38.4194C76.041 35.0825 72.0751 32.4411 67.7099 30.648C63.3448 28.855 58.6672 27.9461 53.9482 27.974C49.2292 28.0019 44.5627 28.966 40.2191 30.8105C35.8754 32.655 31.941 35.3431 28.6438 38.7192L28.2243 38.2997C31.577 34.8704 35.5767 32.1403 39.9919 30.2674C44.4071 28.3946 49.1499 27.4163 53.9458 27.3893C58.7416 27.3622 63.4952 28.2868 67.9313 30.1096C72.3673 31.9324 76.3976 34.6171 79.7889 38.0084C83.1801 41.3996 85.8649 45.43 87.6877 49.866C89.5105 54.3021 90.4351 59.0556 90.408 63.8515C90.3809 68.6474 89.4026 73.3902 87.5298 77.8054C85.657 82.2205 82.9269 86.2203 79.4975 89.573Z" fill="#9215DF"/>
<path d="M47.3023 6.07378L46.8829 6.49316L111.329 70.9392L111.748 70.5198L47.3023 6.07378Z" fill="#9215DF"/>
<path d="M81.9765 38.5035L79.317 35.844L76.6576 38.5035L79.3171 41.1629L81.9765 38.5035Z" fill="#9215DF"/>
<path d="M79.3167 41.6484L76.1777 38.5094L79.3167 35.3704L82.463 38.5094L79.3167 41.6484ZM77.1469 38.5094L79.3167 40.6792L81.4866 38.5094L79.3167 36.3396L77.1469 38.5094Z" fill="#9215DF"/>
<path d="M31.1179 38.5059L28.4585 35.8464L25.799 38.5059L28.4585 41.1654L31.1179 38.5059Z" fill="white"/>
<path d="M28.463 41.6484L25.3239 38.5094L28.463 35.3704L31.602 38.5094L28.463 41.6484ZM26.2931 38.5094L28.463 40.6792L30.6328 38.5094L28.463 36.3396L26.2931 38.5094Z" fill="#9215DF"/>
<path d="M82.0926 89.47L79.4331 86.8105L76.7736 89.47L79.4331 92.1295L82.0926 89.47Z" fill="white"/>
<path d="M79.4325 92.6106L76.2934 89.4715L79.4325 86.3325L82.5715 89.4715L79.4325 92.6106ZM77.2626 89.4715L79.4325 91.6414L81.6023 89.4715L79.4325 87.3017L77.2626 89.4715Z" fill="#9215DF"/>
<path d="M112.985 72.1706C112.722 72.4333 112.387 72.6121 112.022 72.6844C111.658 72.7567 111.28 72.7193 110.936 72.5768C110.593 72.4344 110.299 72.1934 110.093 71.8842C109.886 71.575 109.776 71.2116 109.776 70.8398C109.776 70.468 109.886 70.1045 110.093 69.7953C110.299 69.4861 110.593 69.2451 110.936 69.1027C111.28 68.9603 111.658 68.9228 112.022 68.9951C112.387 69.0674 112.722 69.2462 112.985 69.5089C113.337 69.8626 113.534 70.3411 113.534 70.8398C113.534 71.3385 113.337 71.8169 112.985 72.1706Z" fill="white"/>
<path d="M111.655 73.0603C111.141 73.0606 110.643 72.8827 110.246 72.557C109.848 72.2313 109.576 71.7779 109.476 71.2741C109.375 70.7703 109.453 70.2472 109.695 69.7941C109.937 69.3409 110.328 68.9856 110.803 68.7888C111.277 68.592 111.805 68.5658 112.297 68.7147C112.789 68.8636 113.214 69.1784 113.499 69.6055C113.785 70.0325 113.913 70.5453 113.863 71.0566C113.813 71.5679 113.587 72.046 113.224 72.4094C113.018 72.6162 112.774 72.7803 112.505 72.892C112.235 73.0038 111.946 73.061 111.655 73.0603ZM111.655 69.2993C111.298 69.3006 110.953 69.4254 110.679 69.6524C110.404 69.8794 110.217 70.1946 110.148 70.5444C110.08 70.8941 110.135 71.2567 110.304 71.5704C110.473 71.8842 110.745 72.1296 111.075 72.265C111.405 72.4003 111.771 72.4172 112.112 72.3128C112.452 72.2083 112.746 71.989 112.944 71.6921C113.141 71.3953 113.229 71.0393 113.193 70.6847C113.157 70.3302 112.999 69.999 112.747 69.7477C112.456 69.4605 112.063 69.2994 111.655 69.2993Z" fill="#9215DF"/>
<path d="M48.3966 7.61082C48.1339 7.87453 47.7988 8.05434 47.4338 8.12747C47.0689 8.20061 46.6904 8.16378 46.3463 8.02166C46.0023 7.87954 45.7082 7.63851 45.5012 7.32911C45.2943 7.0197 45.1838 6.65584 45.1838 6.2836C45.1838 5.91137 45.2943 5.54751 45.5012 5.2381C45.7082 4.9287 46.0023 4.68767 46.3463 4.54555C46.6904 4.40342 47.0689 4.36659 47.4338 4.43973C47.7988 4.51287 48.1339 4.69268 48.3966 4.95639C48.7477 5.30885 48.9449 5.78609 48.9449 6.2836C48.9449 6.78112 48.7477 7.25836 48.3966 7.61082Z" fill="white"/>
<path d="M47.0947 8.50051C46.6555 8.50051 46.2262 8.37028 45.8611 8.12629C45.4959 7.8823 45.2113 7.53551 45.0433 7.12978C44.8752 6.72404 44.8312 6.27758 44.9169 5.84685C45.0026 5.41612 45.2141 5.02047 45.5246 4.70993C45.8351 4.39939 46.2308 4.18791 46.6615 4.10224C47.0922 4.01656 47.5387 4.06054 47.9444 4.2286C48.3502 4.39666 48.697 4.68126 48.941 5.04641C49.185 5.41157 49.3152 5.84088 49.3152 6.28004C49.3178 6.57199 49.2616 6.86148 49.1497 7.13117C49.0379 7.40085 48.8727 7.6452 48.6642 7.84956C48.4599 8.05807 48.2155 8.2232 47.9458 8.33505C47.6761 8.4469 47.3867 8.50318 47.0947 8.50051ZM47.0947 4.73945C46.8927 4.73942 46.6926 4.77971 46.5063 4.85796C46.32 4.9362 46.1512 5.05083 46.0098 5.19512C45.7635 5.49045 45.6366 5.86719 45.6539 6.25134C45.6713 6.63548 45.8317 6.99924 46.1036 7.27115C46.3755 7.54306 46.7393 7.70345 47.1234 7.72081C47.5076 7.73817 47.8843 7.61124 48.1796 7.36496C48.3238 7.22194 48.4383 7.05181 48.5165 6.86438C48.5947 6.67695 48.6351 6.4759 48.6353 6.27281C48.6315 5.86414 48.467 5.4734 48.1773 5.1851C47.8877 4.89679 47.4962 4.7341 47.0875 4.73222L47.0947 4.73945Z" fill="#9215DF"/>
</svg>
