<svg width="125" height="100" viewBox="0 0 125 100" fill="none" xmlns="http://www.w3.org/2000/svg">
<path d="M125 20.6631V83.3478C125.001 84.366 124.801 85.3743 124.413 86.3152C124.024 87.2561 123.454 88.111 122.736 88.8312C122.018 89.5514 121.165 90.1227 120.226 90.5125C119.287 90.9023 118.281 91.103 117.264 91.103H111.054V20.6631H125Z" fill="#FCB834"/>
<path opacity="0.8" d="M125 20.6631V83.3478C125.001 84.366 124.801 85.3743 124.413 86.3152C124.024 87.2561 123.454 88.111 122.736 88.8312C122.018 89.5514 121.165 90.1227 120.226 90.5125C119.287 90.9023 118.281 91.103 117.264 91.103H111.054V20.6631H125Z" fill="white"/>
<path d="M125 15.9014V83.348C125.001 84.3662 124.801 85.3745 124.413 86.3154C124.024 87.2563 123.455 88.1112 122.736 88.8314C122.018 89.5516 121.165 90.123 120.226 90.5128C119.287 90.9026 118.281 91.1032 117.264 91.1032H7.92739C5.87441 91.1032 3.90551 90.2861 2.45384 88.8318C1.00216 87.3774 0.186617 85.4048 0.186617 83.348V15.9014C0.18593 14.8828 0.385682 13.874 0.774449 12.9328C1.16322 11.9916 1.73337 11.1364 2.4523 10.4161C3.17124 9.69587 4.02485 9.12465 4.96431 8.73517C5.90377 8.34568 6.91066 8.14555 7.92739 8.14624H117.264C118.281 8.14624 119.287 8.34687 120.226 8.73667C121.165 9.12646 122.018 9.69779 122.736 10.418C123.455 11.1382 124.024 11.9931 124.413 12.934C124.801 13.8749 125.001 14.8832 125 15.9014Z" fill="white"/>
<path d="M124.645 13.5727H0.541763C1.03636 11.9987 2.01926 10.6237 3.34753 9.64774C4.6758 8.6718 6.28017 8.14581 7.92735 8.14624H117.264C118.911 8.14692 120.514 8.67343 121.841 9.64928C123.168 10.6251 124.15 11.9995 124.645 13.5727V13.5727Z" fill="#FCB834"/>
<path d="M15.9606 11.961C16.5664 11.961 17.0575 11.469 17.0575 10.8621C17.0575 10.2552 16.5664 9.76318 15.9606 9.76318C15.3549 9.76318 14.8638 10.2552 14.8638 10.8621C14.8638 11.469 15.3549 11.961 15.9606 11.961Z" fill="white"/>
<path d="M19.8781 11.961C20.4838 11.961 20.9749 11.469 20.9749 10.8621C20.9749 10.2552 20.4838 9.76318 19.8781 9.76318C19.2723 9.76318 18.7812 10.2552 18.7812 10.8621C18.7812 11.469 19.2723 11.961 19.8781 11.961Z" fill="white"/>
<path d="M24.8871 10.862C24.8871 11.0806 24.8223 11.2942 24.701 11.4759C24.5797 11.6576 24.4072 11.7991 24.2055 11.8825C24.0039 11.966 23.782 11.9875 23.5681 11.9445C23.3541 11.9015 23.1578 11.7958 23.0039 11.6408C22.8499 11.4859 22.7454 11.2887 22.7035 11.0741C22.6615 10.8596 22.6841 10.6375 22.7683 10.4358C22.8525 10.2341 22.9946 10.062 23.1765 9.94135C23.3584 9.82066 23.572 9.75679 23.7902 9.75782C23.9347 9.75782 24.0778 9.78642 24.2112 9.84197C24.3446 9.89752 24.4658 9.97894 24.5677 10.0815C24.6696 10.1841 24.7503 10.3059 24.8051 10.4398C24.8599 10.5738 24.8878 10.7172 24.8871 10.862V10.862Z" fill="white"/>
<path d="M125 15.9014V20.6633H0.16571V15.9014C0.165624 15.1116 0.285385 14.3264 0.520888 13.5728H124.624C124.867 14.3253 124.993 15.1106 125 15.9014V15.9014Z" fill="#FCB834"/>
<path opacity="0.5" d="M125 15.9014V20.6633H0.16571V15.9014C0.165624 15.1116 0.285385 14.3264 0.520888 13.5728H124.624C124.867 14.3253 124.993 15.1106 125 15.9014V15.9014Z" fill="white"/>
<path d="M14.869 20.6631V91.103H7.75502C6.08201 91.1168 4.44779 90.5983 3.08769 89.6222C1.7276 88.6461 0.71181 87.2627 0.186615 85.6712V20.6631H14.869Z" fill="#FCB834"/>
<path opacity="0.1" d="M14.869 20.6631V91.103H7.75502C6.08201 91.1168 4.44779 90.5983 3.08769 89.6222C1.7276 88.6461 0.71181 87.2627 0.186615 85.6712V20.6631H14.869Z" fill="black"/>
<path opacity="0.1" d="M106.16 25.6555H19.8781V83.997H106.16V25.6555Z" fill="#FCB834"/>
<path opacity="0.2" d="M6.14629 28.5964H2.43783V32.3118H6.14629V28.5964Z" fill="black"/>
<path opacity="0.2" d="M11.7612 28.5964H8.05273V32.3118H11.7612V28.5964Z" fill="black"/>
<path opacity="0.2" d="M6.14629 34.4888H2.43783V38.2041H6.14629V34.4888Z" fill="black"/>
<path opacity="0.2" d="M11.7612 34.4888H8.05273V38.2041H11.7612V34.4888Z" fill="black"/>
<path opacity="0.2" d="M6.14629 40.3809H2.43783V44.0962H6.14629V40.3809Z" fill="black"/>
<path opacity="0.2" d="M11.7612 40.3809H8.05273V44.0962H11.7612V40.3809Z" fill="black"/>
<path opacity="0.2" d="M6.14629 46.2732H2.43783V49.9885H6.14629V46.2732Z" fill="black"/>
<path opacity="0.2" d="M11.7612 46.2732H8.05273V49.9885H11.7612V46.2732Z" fill="black"/>
<path opacity="0.2" d="M6.14629 52.1599H2.43783V55.8753H6.14629V52.1599Z" fill="black"/>
<path opacity="0.2" d="M11.7612 52.1599H8.05273V55.8753H11.7612V52.1599Z" fill="black"/>
<path opacity="0.2" d="M6.14629 58.0525H2.43783V61.7678H6.14629V58.0525Z" fill="black"/>
<path opacity="0.2" d="M11.7612 58.0525H8.05273V61.7678H11.7612V58.0525Z" fill="black"/>
<path d="M6.02617 63.7769C6.02616 63.861 6.00121 63.9431 5.95449 64.0129C5.90776 64.0828 5.84137 64.1371 5.76376 64.169C5.68615 64.2009 5.60082 64.209 5.51861 64.1922C5.4364 64.1754 5.36103 64.1345 5.30207 64.0747C5.24312 64.0149 5.20324 63.9389 5.18751 63.8564C5.17178 63.7738 5.18091 63.6884 5.21373 63.6111C5.24656 63.5337 5.3016 63.4679 5.37186 63.4219C5.44211 63.376 5.52442 63.352 5.60831 63.3531C5.66363 63.3531 5.71839 63.3641 5.76943 63.3854C5.82047 63.4068 5.86677 63.4381 5.90564 63.4775C5.94451 63.5169 5.97518 63.5637 5.99587 63.6151C6.01656 63.6665 6.02686 63.7215 6.02617 63.7769V63.7769Z" fill="#263238"/>
<path d="M7.54607 63.7769C7.54607 63.8608 7.52126 63.9427 7.47477 64.0124C7.42828 64.0821 7.3622 64.1364 7.2849 64.1685C7.20759 64.2006 7.12252 64.209 7.04045 64.1926C6.95838 64.1763 6.883 64.1359 6.82383 64.0766C6.76466 64.0174 6.72437 63.9418 6.70804 63.8596C6.69172 63.7774 6.7001 63.6922 6.73212 63.6147C6.76414 63.5373 6.81837 63.4711 6.88794 63.4245C6.95751 63.3779 7.03931 63.3531 7.12299 63.3531C7.17874 63.3524 7.23408 63.3628 7.28572 63.3839C7.33737 63.4049 7.38429 63.4361 7.42372 63.4756C7.46314 63.5151 7.49428 63.5621 7.5153 63.6139C7.53631 63.6656 7.54677 63.7211 7.54607 63.7769V63.7769Z" fill="#263238"/>
<path d="M9.06082 63.7769C9.06081 63.861 9.03586 63.9431 8.98914 64.0129C8.94241 64.0828 8.87603 64.1371 8.79842 64.169C8.7208 64.2009 8.63547 64.209 8.55326 64.1922C8.47105 64.1754 8.39568 64.1345 8.33672 64.0747C8.27777 64.0149 8.23789 63.9389 8.22216 63.8564C8.20643 63.7738 8.21556 63.6884 8.24838 63.6111C8.28121 63.5337 8.33625 63.4679 8.4065 63.4219C8.47676 63.376 8.55907 63.352 8.64296 63.3531C8.69828 63.3531 8.75304 63.3641 8.80408 63.3854C8.85512 63.4068 8.90142 63.4381 8.94029 63.4775C8.97916 63.5169 9.00983 63.5637 9.03052 63.6151C9.05121 63.6665 9.06151 63.7215 9.06082 63.7769V63.7769Z" fill="#263238"/>
<path d="M60.7025 59.8055L60.0392 60.2712L59.6422 57.3669L62.0605 58.8426L61.4599 59.2508L62.3948 60.6323L61.6583 61.2393L60.7025 59.8055Z" fill="#263238"/>
</svg>
