<svg width="145" height="145" viewBox="0 0 145 145" fill="none" xmlns="http://www.w3.org/2000/svg">
<path d="M93.3868 116.169C98.2502 116.169 102.193 115.927 102.193 115.628C102.193 115.33 98.2502 115.088 93.3868 115.088C88.5234 115.088 84.5808 115.33 84.5808 115.628C84.5808 115.927 88.5234 116.169 93.3868 116.169Z" fill="#E6E6E6"/>
<path d="M33.5673 102.836L110.551 102.836C118.044 102.836 124.118 96.7618 124.118 89.2688V45.7601C124.118 38.2672 118.044 32.1929 110.551 32.1929L33.5673 32.1929C26.0743 32.1929 20.0001 38.2672 20.0001 45.7601V89.2688C20.0001 96.7618 26.0743 102.836 33.5673 102.836Z" fill="#E5E5E5"/>
<path d="M97.1246 115.628H89.8391L75.034 80.5505H86.1841L97.1246 115.628Z" fill="#E5E5E5"/>
<path d="M126.311 63.9376H125.823V67.5146H126.311V63.9376Z" fill="#FFC727"/>
<path opacity="0.2" d="M126.311 63.9376H125.823V67.5146H126.311V63.9376Z" fill="#EBEBEB"/>
<path d="M126.311 48.6891H125.823V61.4961H126.311V48.6891Z" fill="#FFC727"/>
<path opacity="0.2" d="M126.311 48.6891H125.823V61.4961H126.311V48.6891Z" fill="#EBEBEB"/>
<path d="M64.3956 30H57.7874V30.4873H64.3956V30Z" fill="#FFC727"/>
<path opacity="0.2" d="M64.3956 30H57.7874V30.4873H64.3956V30Z" fill="#EBEBEB"/>
<path d="M117.173 80.5507L97.1099 115.629L82.3049 80.5507H117.173Z" fill="#FFC727"/>
<path opacity="0.2" d="M117.178 80.5508L97.1148 115.629L82.3098 80.5508H117.178Z" fill="#EBEBEB"/>
<path d="M39.6929 102.836L110.55 102.836C118.043 102.836 124.118 96.7618 124.118 89.2688V45.7601C124.118 38.2672 118.043 32.1929 110.55 32.1929L39.6929 32.1929C32.1999 32.1929 26.1256 38.2672 26.1256 45.7601V89.2688C26.1256 96.7618 32.1999 102.836 39.6929 102.836Z" fill="#FFC727"/>
<path opacity="0.2" d="M39.6929 102.836L110.55 102.836C118.043 102.836 124.118 96.7618 124.118 89.2688V45.7601C124.118 38.2672 118.043 32.1929 110.55 32.1929L39.6929 32.1929C32.1999 32.1929 26.1256 38.2672 26.1256 45.7601V89.2688C26.1256 96.7618 32.1999 102.836 39.6929 102.836Z" fill="#EBEBEB"/>
<path opacity="0.7" d="M64.2055 102.836H51.2426L64.956 32.193H77.9238L64.2055 102.836Z" fill="#FFC727"/>
<path opacity="0.7" d="M75.916 102.836H68.5428L82.2611 32.1929H89.6295L75.916 102.836Z" fill="#FFC727"/>
<path d="M106.54 54.9853H70.5165C69.5428 54.9502 68.6206 54.5388 67.9442 53.8375C67.2677 53.1363 66.8897 52.1999 66.8897 51.2256C66.8897 50.2512 67.2677 49.3149 67.9442 48.6136C68.6206 47.9123 69.5428 47.5009 70.5165 47.4658H106.54C107.045 47.4476 107.549 47.5314 108.021 47.7122C108.493 47.8929 108.923 48.1669 109.287 48.5179C109.651 48.8688 109.94 49.2894 110.138 49.7546C110.336 50.2198 110.437 50.7201 110.437 51.2256C110.437 51.731 110.336 52.2313 110.138 52.6965C109.94 53.1617 109.651 53.5823 109.287 53.9333C108.923 54.2842 108.493 54.5582 108.021 54.739C107.549 54.9197 107.045 55.0035 106.54 54.9853Z" fill="white"/>
<path d="M58.1724 54.9853H41.8567C40.883 54.9502 39.9608 54.5388 39.2844 53.8375C38.6079 53.1363 38.2299 52.1999 38.2299 51.2256C38.2299 50.2512 38.6079 49.3149 39.2844 48.6136C39.9608 47.9123 40.883 47.5009 41.8567 47.4658H58.1724C58.6776 47.4476 59.1812 47.5314 59.6532 47.7122C60.1252 47.8929 60.556 48.1669 60.9198 48.5179C61.2836 48.8688 61.5729 49.2894 61.7705 49.7546C61.9682 50.2198 62.07 50.7201 62.07 51.2256C62.07 51.731 61.9682 52.2313 61.7705 52.6965C61.5729 53.1617 61.2836 53.5823 60.9198 53.9333C60.556 54.2842 60.1252 54.5582 59.6532 54.739C59.1812 54.9197 58.6776 55.0035 58.1724 54.9853Z" fill="white"/>
<path d="M106.54 70.8333H45.6822C44.7085 70.7983 43.7863 70.3868 43.1099 69.6855C42.4334 68.9843 42.0554 68.0479 42.0554 67.0736C42.0554 66.0992 42.4334 65.1629 43.1099 64.4616C43.7863 63.7603 44.7085 63.3489 45.6822 63.3138H106.54C107.045 63.2956 107.549 63.3794 108.021 63.5602C108.493 63.7409 108.923 64.015 109.287 64.3659C109.651 64.7168 109.94 65.1374 110.138 65.6026C110.335 66.0679 110.437 66.5681 110.437 67.0736C110.437 67.579 110.335 68.0793 110.138 68.5445C109.94 69.0097 109.651 69.4304 109.287 69.7813C108.923 70.1322 108.493 70.4062 108.021 70.587C107.549 70.7677 107.045 70.8515 106.54 70.8333Z" fill="white"/>
<path d="M106.54 86.6763H78.3478C77.3741 86.6413 76.452 86.2298 75.7755 85.5285C75.0991 84.8273 74.721 83.8909 74.721 82.9166C74.721 81.9422 75.0991 81.0059 75.7755 80.3046C76.452 79.6034 77.3741 79.1919 78.3478 79.1569H106.54C107.045 79.1387 107.549 79.2225 108.021 79.4032C108.493 79.584 108.923 79.858 109.287 80.2089C109.651 80.5598 109.94 80.9804 110.138 81.4457C110.336 81.9109 110.437 82.4111 110.437 82.9166C110.437 83.422 110.336 83.9223 110.138 84.3875C109.94 84.8527 109.651 85.2734 109.287 85.6243C108.923 85.9752 108.493 86.2492 108.021 86.43C107.549 86.6107 107.045 86.6945 106.54 86.6763Z" fill="white"/>
<path opacity="0.1" d="M43.7232 32.1784C43.7232 32.1784 38.3333 61.3207 38.3333 73.6306C38.3333 86.2573 42.7875 102.822 42.7875 102.822H28.5526L27.6121 86.8323C26.7257 71.879 28.2059 56.8796 31.998 42.388L34.6686 32.1541L43.7232 32.1784Z" fill="#EBEBEB"/>
</svg>
