<svg width="107" height="88" viewBox="0 0 107 88" fill="none" xmlns="http://www.w3.org/2000/svg">
<path d="M73.9171 87.0302C78.7805 87.0302 82.7231 86.788 82.7231 86.4893C82.7231 86.1905 78.7805 85.9484 73.9171 85.9484C69.0536 85.9484 65.1111 86.1905 65.1111 86.4893C65.1111 86.788 69.0536 87.0302 73.9171 87.0302Z" fill="#E6E6E6"/>
<path d="M14.0975 73.6969L91.0808 73.6969C98.5738 73.6969 104.648 67.6226 104.648 60.1297V16.621C104.648 9.12801 98.5738 3.05376 91.0808 3.05376L14.0975 3.05376C6.60458 3.05376 0.530327 9.12801 0.530327 16.621V60.1297C0.530327 67.6226 6.60458 73.6969 14.0975 73.6969Z" fill="#E5E5E5"/>
<path d="M77.6549 86.4893H70.3693L55.5643 51.4114H66.7144L77.6549 86.4893Z" fill="#E5E5E5"/>
<path d="M106.841 34.7985H106.354V38.3755H106.841V34.7985Z" fill="#FFC727"/>
<path opacity="0.2" d="M106.841 34.7985H106.354V38.3755H106.841V34.7985Z" fill="#EBEBEB"/>
<path d="M106.841 19.5499H106.354V32.3569H106.841V19.5499Z" fill="#FFC727"/>
<path opacity="0.2" d="M106.841 19.5499H106.354V32.3569H106.841V19.5499Z" fill="#EBEBEB"/>
<path d="M44.9259 0.86084H38.3177V1.34817H44.9259V0.86084Z" fill="#FFC727"/>
<path opacity="0.2" d="M44.9259 0.86084H38.3177V1.34817H44.9259V0.86084Z" fill="#EBEBEB"/>
<path d="M97.7035 51.4115L77.6402 86.4894L62.8352 51.4115H97.7035Z" fill="#FFC727"/>
<path opacity="0.2" d="M97.7084 51.4116L77.6451 86.4895L62.8401 51.4116H97.7084Z" fill="#EBEBEB"/>
<path d="M20.2232 73.6969L91.0807 73.6969C98.5737 73.6969 104.648 67.6226 104.648 60.1297V16.621C104.648 9.12801 98.5737 3.05376 91.0807 3.05376L20.2232 3.05376C12.7302 3.05376 6.65591 9.12801 6.65591 16.621V60.1297C6.65591 67.6226 12.7302 73.6969 20.2232 73.6969Z" fill="#FFC727"/>
<path opacity="0.2" d="M20.2232 73.6969L91.0807 73.6969C98.5737 73.6969 104.648 67.6226 104.648 60.1297V16.621C104.648 9.12801 98.5737 3.05376 91.0807 3.05376L20.2232 3.05376C12.7302 3.05376 6.65591 9.12801 6.65591 16.621V60.1297C6.65591 67.6226 12.7302 73.6969 20.2232 73.6969Z" fill="#EBEBEB"/>
<path opacity="0.7" d="M44.7358 73.697H31.7729L45.4863 3.05383H58.4541L44.7358 73.697Z" fill="#FFC727"/>
<path opacity="0.7" d="M56.4463 73.6969H49.073L62.7913 3.05371H70.1597L56.4463 73.6969Z" fill="#FFC727"/>
<path d="M87.0701 25.8461H51.0467C50.073 25.8111 49.1509 25.3996 48.4744 24.6983C47.798 23.9971 47.42 23.0607 47.42 22.0864C47.42 21.112 47.798 20.1757 48.4744 19.4744C49.1509 18.7732 50.073 18.3617 51.0467 18.3267H87.0701C87.5752 18.3085 88.0788 18.3923 88.5508 18.573C89.0229 18.7538 89.4536 19.0278 89.8174 19.3787C90.1812 19.7296 90.4705 20.1502 90.6682 20.6155C90.8658 21.0807 90.9676 21.5809 90.9676 22.0864C90.9676 22.5918 90.8658 23.0921 90.6682 23.5573C90.4705 24.0225 90.1812 24.4432 89.8174 24.7941C89.4536 25.145 89.0229 25.419 88.5508 25.5998C88.0788 25.7805 87.5752 25.8643 87.0701 25.8461Z" fill="white"/>
<path d="M38.7027 25.8461H22.387C21.4132 25.8111 20.4911 25.3996 19.8146 24.6983C19.1382 23.9971 18.7602 23.0607 18.7602 22.0864C18.7602 21.112 19.1382 20.1757 19.8146 19.4744C20.4911 18.7732 21.4132 18.3617 22.387 18.3267H38.7027C39.2078 18.3085 39.7115 18.3923 40.1835 18.573C40.6555 18.7538 41.0863 19.0278 41.4501 19.3787C41.8138 19.7296 42.1032 20.1502 42.3008 20.6155C42.4984 21.0807 42.6003 21.5809 42.6003 22.0864C42.6003 22.5918 42.4984 23.0921 42.3008 23.5573C42.1032 24.0225 41.8138 24.4432 41.4501 24.7941C41.0863 25.145 40.6555 25.419 40.1835 25.5998C39.7115 25.7805 39.2078 25.8643 38.7027 25.8461Z" fill="white"/>
<path d="M87.07 41.6942H26.2125C25.2387 41.6591 24.3166 41.2476 23.6401 40.5464C22.9637 39.8451 22.5857 38.9088 22.5857 37.9344C22.5857 36.9601 22.9637 36.0237 23.6401 35.3224C24.3166 34.6212 25.2387 34.2097 26.2125 34.1747H87.07C87.5752 34.1565 88.0788 34.2403 88.5508 34.421C89.0228 34.6018 89.4536 34.8758 89.8174 35.2267C90.1812 35.5776 90.4705 35.9983 90.6681 36.4635C90.8658 36.9287 90.9676 37.429 90.9676 37.9344C90.9676 38.4399 90.8658 38.9401 90.6681 39.4054C90.4705 39.8706 90.1812 40.2912 89.8174 40.6421C89.4536 40.993 89.0228 41.267 88.5508 41.4478C88.0788 41.6286 87.5752 41.7123 87.07 41.6942Z" fill="white"/>
<path d="M87.0701 57.5372H58.8781C57.9044 57.5021 56.9822 57.0906 56.3058 56.3894C55.6293 55.6881 55.2513 54.7518 55.2513 53.7774C55.2513 52.8031 55.6293 51.8667 56.3058 51.1655C56.9822 50.4642 57.9044 50.0528 58.8781 50.0177H87.0701C87.5752 49.9995 88.0788 50.0833 88.5508 50.2641C89.0229 50.4448 89.4536 50.7188 89.8174 51.0697C90.1812 51.4207 90.4705 51.8413 90.6682 52.3065C90.8658 52.7717 90.9676 53.272 90.9676 53.7774C90.9676 54.2829 90.8658 54.7832 90.6682 55.2484C90.4705 55.7136 90.1812 56.1342 89.8174 56.4851C89.4536 56.8361 89.0229 57.1101 88.5508 57.2908C88.0788 57.4716 87.5752 57.5554 87.0701 57.5372Z" fill="white"/>
<path opacity="0.1" d="M24.2534 3.03926C24.2534 3.03926 18.8636 32.1815 18.8636 44.4914C18.8636 57.1181 23.3178 73.6824 23.3178 73.6824H9.0829L8.14236 57.6932C7.25596 42.7399 8.73617 27.7404 12.5283 13.2488L15.1989 3.01489L24.2534 3.03926Z" fill="#EBEBEB"/>
</svg>
