<svg width="145" height="145" viewBox="0 0 145 145" fill="none" xmlns="http://www.w3.org/2000/svg">
<path d="M72.2861 144.612C112.088 144.612 144.353 112.346 144.353 72.5436C144.353 32.7416 112.088 0.475708 72.2861 0.475708C32.4844 0.475708 0.21875 32.7416 0.21875 72.5436C0.21875 112.346 32.4844 144.612 72.2861 144.612Z" fill="white"/>
<path d="M124.524 72.5451H71.6114L108.883 35.2737C113.842 40.1304 117.781 45.9295 120.467 52.3301C123.153 58.7307 124.532 65.6037 124.524 72.5451V72.5451Z" fill="#FFC727"/>
<path opacity="0.3" d="M124.524 72.5451H71.6114L108.883 35.2737C113.842 40.1304 117.781 45.9295 120.467 52.3301C123.153 58.7307 124.532 65.6037 124.524 72.5451V72.5451Z" fill="white"/>
<path d="M108.883 35.2739L71.6114 72.5452V20.3182H72.2892C85.9787 20.2995 99.125 25.6723 108.883 35.2739V35.2739Z" fill="#FFC727"/>
<path opacity="0.5" d="M108.883 35.2739L71.6114 72.5452V20.3182H72.2892C85.9787 20.2995 99.125 25.6723 108.883 35.2739V35.2739Z" fill="white"/>
<path d="M71.6114 20.3181V72.5452L35.0178 35.9442C44.6639 26.0933 57.8251 20.4733 71.6114 20.3181V20.3181Z" fill="#FFC727"/>
<path opacity="0.7" d="M71.6114 20.3181V72.5452L35.0178 35.9442C44.6639 26.0933 57.8251 20.4733 71.6114 20.3181V20.3181Z" fill="white"/>
<path d="M71.6114 72.545H20.04C20.0253 58.8527 25.4004 45.7047 35.0031 35.9441L71.6114 72.545Z" fill="#FFC727"/>
<path opacity="0.8" d="M71.6114 72.545H20.04C20.0253 58.8527 25.4004 45.7047 35.0031 35.9441L71.6114 72.545Z" fill="white"/>
<path d="M71.6114 72.5452L35.0178 109.146C25.4151 99.3855 20.04 86.2375 20.0547 72.5452H71.6114Z" fill="#FFC727"/>
<path opacity="0.9" d="M71.6114 72.5452L35.0178 109.146C25.4151 99.3855 20.04 86.2375 20.0547 72.5452H71.6114Z" fill="white"/>
<path d="M124.524 72.5452C124.532 79.4865 123.153 86.3595 120.467 92.7601C117.781 99.1608 113.842 104.96 108.883 109.817L71.6114 72.5452H124.524Z" fill="#FFC727"/>
<path d="M104.043 77.6179C106.849 60.0763 94.9042 43.5809 77.3626 40.7743C59.821 37.9678 43.3256 49.9129 40.519 67.4545C37.7124 84.996 49.6575 101.491 67.1991 104.298C84.7407 107.105 101.236 95.1595 104.043 77.6179Z" fill="white"/>
<path d="M76.4959 75.647C76.1665 76.2103 75.728 76.7022 75.2062 77.094C74.6843 77.4858 74.0895 77.7696 73.4566 77.9287C72.8237 78.0878 72.1655 78.1191 71.5204 78.0207C70.8753 77.9223 70.2563 77.6962 69.6996 77.3556C69.143 77.015 68.6598 76.5669 68.2785 76.0373C67.8972 75.5077 67.6253 74.9074 67.4788 74.2715C67.3324 73.6356 67.3142 72.9768 67.4254 72.3338C67.5367 71.6908 67.775 71.0764 68.1266 70.5267C68.3403 70.1804 96.233 34.272 96.233 34.272C96.233 34.272 76.7022 75.3081 76.4959 75.647Z" fill="#263238"/>
<path d="M77.6202 77.8777C80.5663 74.9316 80.5663 70.1549 77.6202 67.2087C74.674 64.2625 69.8973 64.2625 66.9511 67.2087C64.0049 70.1549 64.0049 74.9316 66.9511 77.8777C69.8973 80.8239 74.674 80.8239 77.6202 77.8777Z" fill="#263238"/>
<path d="M38.2594 44.925C41.2389 40.5896 45.1189 36.9482 49.6346 34.2497C54.1397 31.5129 59.097 29.6018 64.2735 28.6063C69.45 27.6234 74.7588 27.5561 79.9586 28.4074C85.1464 29.202 90.1422 30.9505 94.6932 33.5645C92.3865 32.3532 89.9688 31.3663 87.4732 30.6176C84.9916 29.8454 82.4514 29.2762 79.8775 28.9157C77.3096 28.5638 74.7187 28.4062 72.1271 28.4442C69.5366 28.5086 66.9562 28.792 64.4135 29.2915C59.3093 30.2478 54.409 32.0798 49.9293 34.7065C47.6838 36.0081 45.5673 37.5203 43.6081 39.2227C41.6112 40.9107 39.8163 42.8242 38.2594 44.925V44.925Z" fill="#263238"/>
<path d="M47.7412 43.1199C49.874 40.9423 52.3351 39.1126 55.0349 37.6976C57.7109 36.213 60.5724 35.0908 63.5442 34.3602C66.513 33.6269 69.5628 33.2729 72.6207 33.3066C75.6627 33.3716 78.6866 33.792 81.631 34.5591C78.6537 34.0645 75.6386 33.8327 72.6207 33.8666C69.6177 33.9222 66.6313 34.3252 63.721 35.0674C62.2621 35.4159 60.8253 35.8514 59.4184 36.3715C58.0187 36.9019 56.6557 37.5502 55.3075 38.2133C53.9599 38.8791 52.6491 39.6169 51.3807 40.4235C50.0883 41.2101 48.8701 42.1127 47.7412 43.1199V43.1199Z" fill="#263238"/>
</svg>
