<svg width="125" height="104" viewBox="0 0 125 104" fill="none" xmlns="http://www.w3.org/2000/svg">
<path d="M112.614 9.48242H11.4007V98.1084H112.614V9.48242Z" fill="white"/>
<path d="M112.609 50.1455H11.6442V98.1084H112.609V50.1455Z" fill="#EBEBEB"/>
<path d="M93.845 38.9895C93.845 39.0591 79.9908 39.1187 62.9116 39.1187C45.8324 39.1187 31.9732 39.0591 31.9732 38.9895C31.9732 38.92 45.8224 38.8604 62.9116 38.8604C80.0007 38.8604 93.845 38.915 93.845 38.9895Z" fill="#263238"/>
<path d="M112.027 19.073C112.027 19.1426 89.6112 19.2022 61.9625 19.2022C34.3138 19.2022 11.8926 19.1426 11.8926 19.073C11.8926 19.0035 34.3038 18.9438 61.9625 18.9438C89.6212 18.9438 112.027 18.9985 112.027 19.073Z" fill="#263238"/>
<path d="M16.8768 15.6293C17.7248 15.6293 18.4123 14.9419 18.4123 14.0938C18.4123 13.2458 17.7248 12.5583 16.8768 12.5583C16.0288 12.5583 15.3413 13.2458 15.3413 14.0938C15.3413 14.9419 16.0288 15.6293 16.8768 15.6293Z" fill="#263238"/>
<path d="M22.0149 15.6293C22.863 15.6293 23.5504 14.9419 23.5504 14.0938C23.5504 13.2458 22.863 12.5583 22.0149 12.5583C21.1669 12.5583 20.4795 13.2458 20.4795 14.0938C20.4795 14.9419 21.1669 15.6293 22.0149 15.6293Z" fill="#263238"/>
<path d="M28.6886 14.0938C28.6886 14.3975 28.5986 14.6944 28.4298 14.9469C28.2611 15.1994 28.0213 15.3962 27.7407 15.5124C27.4602 15.6287 27.1514 15.6591 26.8536 15.5998C26.5557 15.5406 26.2821 15.3943 26.0674 15.1796C25.8526 14.9649 25.7064 14.6913 25.6471 14.3934C25.5879 14.0955 25.6183 13.7868 25.7345 13.5062C25.8507 13.2257 26.0475 12.9858 26.3001 12.8171C26.5526 12.6484 26.8494 12.5583 27.1531 12.5583C27.3548 12.5583 27.5544 12.5981 27.7407 12.6752C27.927 12.7524 28.0963 12.8655 28.2389 13.0081C28.3815 13.1507 28.4946 13.3199 28.5717 13.5062C28.6489 13.6925 28.6886 13.8922 28.6886 14.0938Z" fill="#263238"/>
<path d="M30.6259 41.5713C32.2036 39.9936 32.2036 37.4356 30.6259 35.8579C29.0482 34.2802 26.4903 34.2802 24.9125 35.8579C23.3348 37.4356 23.3348 39.9936 24.9125 41.5713C26.4903 43.149 29.0482 43.149 30.6259 41.5713Z" fill="#9215DF"/>
<path d="M28.45 36.6887V40.5995H27.5457V37.4142H26.7655V36.6887H28.45Z" fill="white"/>
<path d="M68.4523 38.8503C68.4066 38.3702 68.3285 37.8937 68.2187 37.4241C67.8815 36.1553 67.1271 35.0369 66.077 34.2488C65.3058 33.6685 64.4017 33.2903 63.4469 33.1489C62.4922 33.0074 61.5172 33.1071 60.6109 33.4388C60.0885 33.6252 59.5976 33.8899 59.1549 34.224C58.6856 34.5649 58.2745 34.9794 57.9374 35.4514C57.2111 36.4358 56.8191 37.6269 56.8191 38.8503C56.8191 40.0737 57.2111 41.2649 57.9374 42.2493C58.2745 42.7213 58.6856 43.1357 59.1549 43.4767C59.5976 43.8107 60.0885 44.0755 60.6109 44.2618C61.3698 44.5379 62.1779 44.6528 62.9837 44.5993C63.7895 44.5458 64.5753 44.325 65.2911 43.951C66.0068 43.577 66.6368 43.058 67.1409 42.4271C67.6449 41.7961 68.012 41.0671 68.2187 40.2864C68.3283 39.8184 68.4063 39.3436 68.4523 38.8652C68.4632 38.9909 68.4632 39.1172 68.4523 39.2429C68.4536 39.3943 68.4419 39.5456 68.4175 39.6951C68.397 39.903 68.3605 40.109 68.3082 40.3113C68.0412 41.4158 67.463 42.4205 66.6421 43.2062C65.8212 43.9919 64.792 44.5255 63.6769 44.7438C62.625 44.9435 61.5388 44.8577 60.5314 44.4953C59.9852 44.3032 59.471 44.0301 59.0058 43.6854C58.5161 43.3306 58.0865 42.8994 57.7337 42.4083C56.9724 41.3811 56.5615 40.1363 56.5615 38.8578C56.5615 37.5792 56.9724 36.3345 57.7337 35.3073C58.088 34.8188 58.5173 34.3894 59.0058 34.0351C59.471 33.6904 59.9852 33.4173 60.5314 33.2252C61.5388 32.8628 62.625 32.777 63.6769 32.9767C64.7945 33.1936 65.8262 33.7273 66.649 34.514C67.4719 35.3008 68.0513 36.3075 68.3181 37.4142C68.37 37.6149 68.4065 37.8192 68.4275 38.0254C68.4519 38.1766 68.4635 38.3295 68.4622 38.4826C68.4692 38.6052 68.4659 38.7282 68.4523 38.8503Z" fill="#9215DF"/>
<path d="M101.915 38.7163C101.885 38.7163 101.915 38.3535 101.741 37.7224C101.499 36.8547 100.974 36.0924 100.25 35.5559C99.7241 35.1608 99.1071 34.9043 98.456 34.8096C97.8048 34.715 97.1403 34.7853 96.5234 35.0142C95.7952 35.2771 95.1631 35.7533 94.7097 36.3807C94.2161 37.051 93.9498 37.8615 93.9498 38.6939C93.9498 39.5263 94.2161 40.3369 94.7097 41.0071C95.1644 41.6345 95.7959 42.112 96.5234 42.3786C97.141 42.6054 97.8054 42.6742 98.4563 42.5788C99.1072 42.4833 99.7239 42.2266 100.25 41.832C100.973 41.2962 101.497 40.536 101.741 39.6704C101.905 39.0542 101.885 38.6765 101.915 38.6765C101.928 38.7622 101.928 38.8493 101.915 38.9349C101.912 39.1845 101.88 39.4329 101.821 39.6753C101.64 40.4404 101.242 41.1371 100.676 41.6818C100.109 42.2266 99.397 42.5962 98.6254 42.7463C97.8967 42.8883 97.1432 42.8316 96.4439 42.5823C95.6672 42.3061 94.9918 41.8022 94.5059 41.1363C93.9771 40.4243 93.6915 39.561 93.6915 38.674C93.6915 37.7871 93.9771 36.9238 94.5059 36.2118C94.9918 35.5459 95.6672 35.042 96.4439 34.7658C97.1432 34.5165 97.8967 34.4598 98.6254 34.6018C99.3979 34.7517 100.111 35.1219 100.678 35.6676C101.244 36.2134 101.641 36.9115 101.821 37.6777C101.88 37.9184 101.912 38.1652 101.915 38.4132C101.932 38.5135 101.932 38.616 101.915 38.7163Z" fill="#263238"/>
<path d="M70.4996 38.5422H31.2527V39.2528H70.4996V38.5422Z" fill="#9215DF"/>
<path d="M66.5587 39.3596C66.9169 37.1574 65.4221 35.0817 63.2198 34.7234C61.0176 34.3651 58.9418 35.86 58.5836 38.0622C58.2253 40.2645 59.7202 42.3402 61.9224 42.6985C64.1247 43.0568 66.2004 41.5619 66.5587 39.3596Z" fill="#9215DF"/>
<path d="M64.0992 39.8643V40.5998H61.1425V40.0134L62.6333 38.5872C62.9811 38.2593 63.0408 38.0555 63.0408 37.8667C63.0408 37.5586 62.8321 37.3698 62.4147 37.3698C62.2579 37.3644 62.1022 37.3973 61.961 37.4657C61.8199 37.5341 61.6976 37.636 61.6047 37.7624L60.9487 37.34C61.1266 37.0995 61.3614 36.9069 61.6319 36.7795C61.9025 36.652 62.2005 36.5936 62.4991 36.6095C63.3737 36.6095 63.9551 37.0567 63.9551 37.7673C63.949 38.0103 63.8866 38.2485 63.7727 38.4632C63.6589 38.6779 63.4968 38.8632 63.2992 39.0047L62.3997 39.8544L64.0992 39.8643Z" fill="white"/>
<path d="M99.4105 39.4018C99.4105 40.0628 98.9136 40.669 97.7905 40.669C97.263 40.677 96.7447 40.5301 96.2998 40.2466L96.6526 39.5559C96.979 39.7879 97.3702 39.9113 97.7707 39.9087C98.2229 39.9087 98.5011 39.7248 98.5011 39.4118C98.5011 39.0987 98.2875 38.9149 97.7707 38.9149H97.3582V38.3136L98.1632 37.4042H96.4985V36.6787H99.2366V37.2899L98.3521 38.2838C98.6381 38.299 98.9074 38.4236 99.1044 38.6316C99.3013 38.8396 99.4109 39.1154 99.4105 39.4018Z" fill="#263238"/>
<path d="M87.0024 26C87.0024 26.0695 77.1733 26.1292 65.0534 26.1292C52.9334 26.1292 43.0993 26.0695 43.0993 26C43.0993 25.9304 52.9434 25.8608 65.0534 25.8608C77.1633 25.8608 87.0024 25.9254 87.0024 26Z" fill="#263238"/>
<path d="M59.8754 50.7269L62.9116 46.6074L65.9428 50.7269H59.8754Z" fill="#EBEBEB"/>
<path d="M112.609 98.1084C112.609 97.189 112.564 62.8269 112.499 9.48233L112.609 9.59165H11.4057L11.5349 9.46245C11.5349 41.663 11.5349 71.9901 11.5349 98.0885L11.4206 97.9742L112.629 98.0885L11.4206 98.2028H11.3063V98.0885C11.3063 71.9901 11.3063 41.663 11.3063 9.46245V9.33325H11.4404H112.644H112.753V9.46245C112.653 62.807 112.609 97.189 112.609 98.1084Z" fill="#263238"/>
<path d="M36.6244 60.5062C36.6244 60.5758 33.5336 60.6354 29.7271 60.6354C25.9207 60.6354 22.8299 60.5758 22.8299 60.5062C22.8299 60.4367 25.9158 60.3721 29.7271 60.3721C33.5385 60.3721 36.6244 60.4317 36.6244 60.5062Z" fill="#9215DF"/>
<path d="M50.7867 71.6373H24.7182C23.7812 71.6373 22.8825 71.265 22.2199 70.6025C21.5573 69.9399 21.1851 69.0412 21.1851 68.1042C21.1851 67.6402 21.2765 67.1808 21.454 66.7521C21.6316 66.3234 21.8918 65.934 22.2199 65.6059C22.548 65.2778 22.9375 65.0176 23.3661 64.84C23.7948 64.6624 24.2542 64.571 24.7182 64.571H50.7867C51.2511 64.5704 51.7111 64.6613 52.1403 64.8386C52.5695 65.0158 52.9596 65.276 53.2882 65.6041C53.6168 65.9323 53.8775 66.322 54.0554 66.751C54.2333 67.1799 54.3248 67.6398 54.3248 68.1042C54.3248 68.5686 54.2333 69.0284 54.0554 69.4574C53.8775 69.8864 53.6168 70.2761 53.2882 70.6042C52.9596 70.9324 52.5695 71.1925 52.1403 71.3698C51.7111 71.547 51.2511 71.6379 50.7867 71.6373Z" fill="#FAFAFA"/>
<path d="M84.8656 60.5062C84.8656 60.5758 81.9387 60.6354 78.3311 60.6354C74.7234 60.6354 71.7966 60.5758 71.7966 60.5062C71.7966 60.4367 74.7185 60.3721 78.3311 60.3721C81.9437 60.3721 84.8656 60.4317 84.8656 60.5062Z" fill="#9215DF"/>
<path d="M36.2617 79.7718C36.2617 79.8414 33.3348 79.901 29.7272 79.901C26.1195 79.901 23.1927 79.8414 23.1927 79.7718C23.1927 79.7022 26.1146 79.6426 29.7272 79.6426C33.3398 79.6426 36.2617 79.6972 36.2617 79.7718Z" fill="#9215DF"/>
<path d="M98.1334 71.6373H72.0599C71.1229 71.6373 70.2242 71.265 69.5617 70.6025C68.8991 69.9399 68.5268 69.0412 68.5268 68.1042C68.5268 67.6402 68.6182 67.1808 68.7958 66.7521C68.9733 66.3234 69.2336 65.934 69.5617 65.6059C69.8897 65.2778 70.2792 65.0175 70.7079 64.84C71.1365 64.6624 71.596 64.571 72.0599 64.571H98.1334C98.5974 64.571 99.0568 64.6624 99.4855 64.84C99.9142 65.0175 100.304 65.2778 100.632 65.6059C100.96 65.934 101.22 66.3234 101.398 66.7521C101.575 67.1808 101.667 67.6402 101.667 68.1042C101.667 69.0412 101.294 69.9399 100.632 70.6025C99.9691 71.265 99.0705 71.6373 98.1334 71.6373Z" fill="#FAFAFA"/>
<path d="M99.0975 91.1964H24.912C24.4476 91.197 23.9876 91.1061 23.5584 90.9288C23.1292 90.7516 22.7391 90.4914 22.4105 90.1633C22.0819 89.8351 21.8212 89.4454 21.6433 89.0165C21.4655 88.5875 21.3739 88.1276 21.3739 87.6632C21.3739 87.1989 21.4655 86.739 21.6433 86.31C21.8212 85.8811 22.0819 85.4913 22.4105 85.1632C22.7391 84.8351 23.1292 84.5749 23.5584 84.3976C23.9876 84.2204 24.4476 84.1295 24.912 84.1301H99.0975C99.5619 84.1295 100.022 84.2204 100.451 84.3976C100.88 84.5749 101.27 84.8351 101.599 85.1632C101.928 85.4913 102.188 85.8811 102.366 86.31C102.544 86.739 102.636 87.1989 102.636 87.6632C102.636 88.1276 102.544 88.5875 102.366 89.0165C102.188 89.4454 101.928 89.8351 101.599 90.1633C101.27 90.4914 100.88 90.7516 100.451 90.9288C100.022 91.1061 99.5619 91.197 99.0975 91.1964Z" fill="#FAFAFA"/>
<path d="M117.221 15.6909C120.089 12.8227 120.089 8.17242 117.221 5.30421C114.353 2.436 109.702 2.436 106.834 5.30421C103.966 8.17242 103.966 12.8227 106.834 15.6909C109.702 18.5591 114.353 18.5591 117.221 15.6909Z" fill="#9215DF"/>
<path d="M115.051 8.4556L114.011 7.41553L109.345 12.0818L110.385 13.1219L115.051 8.4556Z" fill="white"/>
<path d="M110.389 7.40744L109.349 8.44751L114.016 13.1138L115.056 12.0737L110.389 7.40744Z" fill="white"/>
</svg>
